<svg width="31" height="31" viewBox="0 0 31 31" fill="none" xmlns="http://www.w3.org/2000/svg">
<path d="M15.5 21.7041L21.5 15.7041L19.4 13.6041L17 16.0041V9.7041H14V16.0041L11.6 13.6041L9.5 15.7041L15.5 21.7041ZM15.5 30.7041C13.425 30.7041 11.475 30.3104 9.65 29.5229C7.825 28.7354 6.2375 27.6666 4.8875 26.3166C3.5375 24.9666 2.46875 23.3791 1.68125 21.5541C0.89375 19.7291 0.5 17.7791 0.5 15.7041C0.5 13.6291 0.89375 11.6791 1.68125 9.8541C2.46875 8.0291 3.5375 6.4416 4.8875 5.0916C6.2375 3.7416 7.825 2.67285 9.65 1.88535C11.475 1.09785 13.425 0.704102 15.5 0.704102C17.575 0.704102 19.525 1.09785 21.35 1.88535C23.175 2.67285 24.7625 3.7416 26.1125 5.0916C27.4625 6.4416 28.5312 8.0291 29.3187 9.8541C30.1062 11.6791 30.5 13.6291 30.5 15.7041C30.5 17.7791 30.1062 19.7291 29.3187 21.5541C28.5312 23.3791 27.4625 24.9666 26.1125 26.3166C24.7625 27.6666 23.175 28.7354 21.35 29.5229C19.525 30.3104 17.575 30.7041 15.5 30.7041ZM15.5 27.7041C18.85 27.7041 21.6875 26.5416 24.0125 24.2166C26.3375 21.8916 27.5 19.0541 27.5 15.7041C27.5 12.3541 26.3375 9.5166 24.0125 7.1916C21.6875 4.8666 18.85 3.7041 15.5 3.7041C12.15 3.7041 9.3125 4.8666 6.9875 7.1916C4.6625 9.5166 3.5 12.3541 3.5 15.7041C3.5 19.0541 4.6625 21.8916 6.9875 24.2166C9.3125 26.5416 12.15 27.7041 15.5 27.7041Z" fill="black"/>
</svg>
