<svg width="39" height="40" viewBox="0 0 39 40" fill="none" xmlns="http://www.w3.org/2000/svg">
<g id="Ic-Web" filter="url(#filter0_d_10861_244)">
<path d="M19.495 31.1989C27.97 31.1989 34.99 24.194 34.99 15.704C34.99 7.22899 27.97 0.208984 19.48 0.208984C11.005 0.208984 4 7.22899 4 15.704C4 24.194 11.02 31.1989 19.495 31.1989ZM10.465 6.26899C11.965 4.84399 13.78 3.74899 15.805 3.14899C14.74 4.21398 13.84 5.71399 13.165 7.54398C12.115 7.21398 11.215 6.77899 10.465 6.26899ZM23.2001 3.16399C25.21 3.76399 27.025 4.84399 28.51 6.26899C27.775 6.79398 26.8751 7.21398 25.825 7.55898C25.15 5.71399 24.25 4.21398 23.2001 3.16399ZM20.545 3.64399C21.79 4.24399 22.93 5.86398 23.74 8.06899C22.75 8.24898 21.685 8.35399 20.545 8.39898V3.64399ZM15.25 8.06899C16.075 5.86398 17.2001 4.24399 18.445 3.64399V8.39898C17.305 8.35399 16.24 8.24898 15.25 8.06899ZM6.445 14.654C6.65501 12.104 7.61501 9.74899 9.085 7.81398C10 8.48898 11.185 9.07399 12.565 9.50899C12.175 11.069 11.92 12.8089 11.845 14.654H6.445ZM27.145 14.654C27.07 12.8089 26.815 11.069 26.425 9.50899C27.805 9.07399 28.99 8.50398 29.89 7.81398C31.375 9.74899 32.335 12.104 32.545 14.654H27.145ZM13.99 14.654C14.065 13.019 14.29 11.459 14.635 10.049C15.835 10.289 17.1099 10.439 18.445 10.499V14.654H13.99ZM20.545 14.654V10.499C21.88 10.439 23.155 10.289 24.355 10.049C24.7 11.459 24.925 13.019 25 14.654H20.545ZM6.445 16.754H11.845C11.92 18.629 12.175 20.384 12.565 21.959C11.2 22.394 10.03 22.9639 9.13 23.639C7.63 21.6889 6.65501 19.319 6.445 16.754ZM13.99 16.754H18.445V20.984C17.125 21.0439 15.835 21.194 14.65 21.419C14.29 19.994 14.05 18.4039 13.99 16.754ZM20.545 20.984V16.754H25C24.94 18.4039 24.7 19.994 24.34 21.419C23.155 21.194 21.88 21.0439 20.545 20.984ZM26.425 21.959C26.83 20.384 27.07 18.629 27.145 16.754H32.545C32.335 19.319 31.3601 21.6889 29.86 23.639C28.9601 22.9639 27.79 22.394 26.425 21.959ZM20.545 23.084C21.6699 23.1289 22.735 23.234 23.71 23.414C22.9 25.574 21.775 27.179 20.545 27.7639V23.084ZM15.28 23.414C16.255 23.234 17.32 23.1289 18.445 23.084V27.7639C17.215 27.179 16.09 25.574 15.28 23.414ZM10.51 25.184C11.245 24.674 12.145 24.254 13.18 23.9239C13.855 25.724 14.74 27.194 15.775 28.2439C13.795 27.644 11.995 26.579 10.51 25.184ZM25.81 23.9239C26.845 24.254 27.745 24.674 28.4801 25.184C26.995 26.579 25.1949 27.644 23.215 28.2439C24.25 27.194 25.135 25.724 25.81 23.9239Z" fill="white"/>
</g>
<defs>
<filter id="filter0_d_10861_244" x="0" y="0.208984" width="38.9902" height="38.9897" filterUnits="userSpaceOnUse" color-interpolation-filters="sRGB">
<feFlood flood-opacity="0" result="BackgroundImageFix"/>
<feColorMatrix in="SourceAlpha" type="matrix" values="0 0 0 0 0 0 0 0 0 0 0 0 0 0 0 0 0 0 127 0" result="hardAlpha"/>
<feOffset dy="4"/>
<feGaussianBlur stdDeviation="2"/>
<feComposite in2="hardAlpha" operator="out"/>
<feColorMatrix type="matrix" values="0 0 0 0 0 0 0 0 0 0 0 0 0 0 0 0 0 0 0.25 0"/>
<feBlend mode="normal" in2="BackgroundImageFix" result="effect1_dropShadow_10861_244"/>
<feBlend mode="normal" in="SourceGraphic" in2="effect1_dropShadow_10861_244" result="shape"/>
</filter>
</defs>
</svg>
